<?xml version="1.0" ?><svg viewBox="0 0 32 32" xmlns="http://www.w3.org/2000/svg"><title/><g data-name="Hamburger Menu" id="Hamburger_Menu"><path d="M26,8H11a2,2,0,0,1,0-4H26a2,2,0,0,1,0,4Z"/><path d="M26,18H11a2,2,0,0,1,0-4H26a2,2,0,0,1,0,4Z"/><path d="M26,28H11a2,2,0,0,1,0-4H26a2,2,0,0,1,0,4Z"/><path d="M6,8a2,2,0,0,1-1.41-.58,1.83,1.83,0,0,1-.25-.31,1.67,1.67,0,0,1-.19-.34A1.8,1.8,0,0,1,4,6.39a1.92,1.92,0,0,1,0-.78,1.57,1.57,0,0,1,.11-.37,1.52,1.52,0,0,1,.19-.35,1.83,1.83,0,0,1,.25-.31A2,2,0,0,1,6.39,4a2.22,2.22,0,0,1,.37.11,1.46,1.46,0,0,1,.35.19,1.78,1.78,0,0,1,.3.24A2,2,0,0,1,8,6a1.7,1.7,0,0,1,0,.39,1.86,1.86,0,0,1-.11.38,2.32,2.32,0,0,1-.19.34,1.83,1.83,0,0,1-.25.31,1.78,1.78,0,0,1-.3.24,1.46,1.46,0,0,1-.35.19A1.57,1.57,0,0,1,6.39,8,1.73,1.73,0,0,1,6,8Z"/><path d="M6,18a2,2,0,0,1-2-2,1.71,1.71,0,0,1,0-.39,1.8,1.8,0,0,1,.11-.38,1.68,1.68,0,0,1,.19-.34,1.44,1.44,0,0,1,.25-.3A2,2,0,0,1,6.39,14a1.57,1.57,0,0,1,.37.11,1.93,1.93,0,0,1,.35.19,1.43,1.43,0,0,1,.3.25,2,2,0,0,1,0,2.82,1.43,1.43,0,0,1-.3.25,1.9,1.9,0,0,1-.35.19,1.57,1.57,0,0,1-.37.11A1.73,1.73,0,0,1,6,18Z"/><path d="M6,28a2,2,0,0,1-1.41-.58,1.83,1.83,0,0,1-.25-.31,1.51,1.51,0,0,1-.19-.35A1.56,1.56,0,0,1,4,26.39a1.92,1.92,0,0,1,0-.78,1.8,1.8,0,0,1,.11-.38,1.68,1.68,0,0,1,.19-.34,1.83,1.83,0,0,1,.25-.31A2,2,0,0,1,6.39,24a2.22,2.22,0,0,1,.37.11,1.93,1.93,0,0,1,.35.19,1.78,1.78,0,0,1,.3.24,1.83,1.83,0,0,1,.25.31,2.32,2.32,0,0,1,.19.34,1.86,1.86,0,0,1,.11.38A1.71,1.71,0,0,1,8,26a2,2,0,0,1-.59,1.42,1.78,1.78,0,0,1-.3.24,1.46,1.46,0,0,1-.35.19,1.57,1.57,0,0,1-.37.11A1.73,1.73,0,0,1,6,28Z"/></g></svg>