<?xml version="1.0" ?><svg viewBox="0 0 32 32" xmlns="http://www.w3.org/2000/svg"><defs><style>.cls-1{fill:#231f20;}</style></defs><title/><g id="List"><path class="cls-1" d="M9.2285,16a1.5,1.5,0,1,1-1.5-1.5A1.5,1.5,0,0,1,9.2285,16Zm-1.5,4.5a1.5,1.5,0,1,0,1.5,1.5A1.4985,1.4985,0,0,0,7.7285,20.5Zm0-12a1.5,1.5,0,1,0,1.5,1.5A1.5,1.5,0,0,0,7.7285,8.5ZM25.7715,15H11.7285a1,1,0,0,0,0,2h14.043a1,1,0,1,0,0-2Zm-.043,6H11.6855a1,1,0,1,0,0,2h14.043a1,1,0,0,0,0-2ZM11.6855,11h14.043a1,1,0,0,0,0-2H11.6855a1,1,0,1,0,0,2Z"/></g></svg>