<svg height="512pt" viewBox="-31 0 512 512" width="512pt" xmlns="http://www.w3.org/2000/svg" fill="#9bcd12"><path d="m450 121h-120v-60h-30v-31h30v-30h-210v30h30v31h-30v329.988281h330zm-270-91h90v31h-90zm60 331h-30v-30h30zm60 0h-30v-60h-90v60h-30v-270h150zm120 0h-90v-210h90zm0 0"/><path d="m180 121h30v30h-30zm0 0"/><path d="m240 121h30v30h-30zm0 0"/><path d="m180 181h30v30h-30zm0 0"/><path d="m240 181h30v30h-30zm0 0"/><path d="m180 241h30v30h-30zm0 0"/><path d="m240 241h30v30h-30zm0 0"/><path d="m360 181h30v30h-30zm0 0"/><path d="m360 241h30v30h-30zm0 0"/><path d="m360 301h30v30h-30zm0 0"/><path d="m450 512v-91h-30v30h-90v-30h-30v30h-150v-30h-30v91h30v-31h150v31h30v-31h90v31zm0 0"/><path d="m90 361h-30v-270h30v-30h-30v-31h30v-30h-90v30h30v31h-30v30h30v270h-30v30h90zm0 0"/></svg>